<?xml version="1.0" standalone="no"?>
<!DOCTYPE svg PUBLIC "-//W3C//DTD SVG 1.1//EN" "http://www.w3.org/Graphics/SVG/1.1/DTD/svg11.dtd" >
<svg xmlns="http://www.w3.org/2000/svg">
<metadata>
Created by FontForge 20120731 at Tue May 16 14:05:08 2017
 By admin
</metadata>
<defs>
<font id="iconfont" horiz-adv-x="1024" >
  <font-face 
    font-family="iconfont"
    font-weight="500"
    font-stretch="normal"
    units-per-em="1024"
    panose-1="2 0 6 3 0 0 0 0 0 0"
    ascent="896"
    descent="-128"
    x-height="792"
    bbox="-0.5 -162 4708 930"
    underline-thickness="0"
    underline-position="0"
    unicode-range="U+0078-E653"
  />
<missing-glyph 
 />
    <glyph glyph-name=".notdef" 
 />
    <glyph glyph-name=".notdef" 
 />
    <glyph glyph-name=".null" horiz-adv-x="0" 
 />
    <glyph glyph-name="nonmarkingreturn" horiz-adv-x="341" 
 />
    <glyph glyph-name="x" unicode="x" horiz-adv-x="1001" 
d="M281 543q-27 -1 -53 -1h-83q-18 0 -36.5 -6t-32.5 -18.5t-23 -32t-9 -45.5v-76h912v41q0 16 -0.5 30t-0.5 18q0 13 -5 29t-17 29.5t-31.5 22.5t-49.5 9h-133v-97h-438v97zM955 310v-52q0 -23 0.5 -52t0.5 -58t-10.5 -47.5t-26 -30t-33 -16t-31.5 -4.5q-14 -1 -29.5 -0.5
t-29.5 0.5h-32l-45 128h-439l-44 -128h-29h-34q-20 0 -45 1q-25 0 -41 9.5t-25.5 23t-13.5 29.5t-4 30v167h911zM163 247q-12 0 -21 -8.5t-9 -21.5t9 -21.5t21 -8.5q13 0 22 8.5t9 21.5t-9 21.5t-22 8.5zM316 123q-8 -26 -14 -48q-5 -19 -10.5 -37t-7.5 -25t-3 -15t1 -14.5
t9.5 -10.5t21.5 -4h37h67h81h80h64h36q23 0 34 12t2 38q-5 13 -9.5 30.5t-9.5 34.5q-5 19 -11 39h-368zM336 498v228q0 11 2.5 23t10 21.5t20.5 15.5t34 6h188q31 0 51.5 -14.5t20.5 -52.5v-227h-327z" />
    <glyph glyph-name="android" unicode="&#xe604;" 
d="M770 491q-9 96 -82.5 162t-173.5 66t-173 -66t-83 -162h512zM375 599.5q0 9.5 7 16.5t16.5 7t16 -7t6.5 -16.5t-6.5 -16t-16 -6.5t-16.5 6.5t-7 16zM606 599.5q0 9.5 7 16.5t16.5 7t16 -7t6.5 -16.5t-6.5 -16t-16 -6.5t-16.5 6.5t-7 16zM405 695l-42 74q-4 8 -11.5 3.5
t-3.5 -11.5l42 -74q8 4 15 8zM623 695l42 74q4 8 11.5 3.5t2.5 -11.5l-41 -74q-9 4 -15 8zM238 185q0 -25 -17 -42.5t-40.5 -17.5t-40.5 17.5t-17 42.5v231q0 24 17 41.5t40.5 17.5t40.5 -17.5t17 -41.5v-231zM903 185q0 -25 -17 -42.5t-40.5 -17.5t-40.5 17.5t-17 42.5v231
q0 24 17 41.5t40.5 17.5t40.5 -17.5t17 -41.5v-231zM260 466v-370q0 -25 17.5 -42t42.5 -17h41v-126q0 -25 17 -42.5t40.5 -17.5t40.5 17.5t17 42.5v126h75v-126q0 -25 17 -42.5t40.5 -17.5t40.5 17.5t17 42.5v126h42q24 0 41.5 17t17.5 42v370h-507z" />
    <glyph glyph-name="duanxin" unicode="&#xe623;" 
d="M947 731h-871q-32 0 -54 -22t-22 -54v-587q0 -31 22 -53.5t54 -22.5h871q31 0 53.5 22.5t22.5 53.5v587q0 32 -22.5 54t-53.5 22v0zM975 10l-332 330q-63 -50 -103 -66q-12 -5 -33.5 -5t-33.5 5q-38 15 -95 62l-326 -321l-21 21l324 320q-65 56 -149.5 147.5
t-117.5 130.5t-52 63v0l21 17q11 -14 31 -37t75.5 -85t105 -113t107.5 -102t96 -70q12 -6 35 -6t34 6q40 20 99 69.5t115.5 105.5t107 109t81.5 88l31 35l17 -17q-20 -23 -53.5 -61.5t-120 -129t-152.5 -147.5l330 -328l-21 -21v0zM975 10z" />
    <glyph glyph-name="tishi" unicode="&#xe653;" 
d="M509 851q-94 0 -180 -36.5t-148.5 -99t-99 -148.5t-36.5 -180t36.5 -180t99 -148t148.5 -99t180 -37t180 37t148 99t99 148t37 180t-37 180t-99 148.5t-148 99t-180 36.5zM508.5 -29q-113.5 0 -209 55.5t-151 151.5t-55.5 209.5t55.5 209t151 151t209 55.5t209.5 -55.5
t151.5 -151t55.5 -209t-55.5 -209.5t-151.5 -151.5t-209.5 -55.5zM521.5 243q9.5 0 16 6.5t6.5 16.5v428q0 10 -6.5 16.5t-16 6.5t-16 -6.5t-6.5 -16.5v-428q-2 -8 5.5 -15.5t17 -7.5zM522 147zM486 147.5q0 14.5 10.5 24.5t25 10t25 -10t10.5 -24.5t-10.5 -25t-25 -10.5
t-25 10.5t-10.5 25z" />
    <glyph glyph-name="ios" unicode="&#xe629;" 
d="M774 357q0 31 10 59.5t22.5 46.5t30.5 34t25.5 21.5t15.5 9.5l1 1q-20 27 -46.5 46t-52.5 27t-44 11.5t-34 4.5q-33 3 -70.5 -7.5t-69 -22.5t-45.5 -12q-16 0 -70.5 20t-88.5 20q-62 -1 -115.5 -31.5t-84.5 -81.5q-31 -50 -38.5 -113t5.5 -124t37.5 -117t56.5 -99
q19 -26 32.5 -42t34 -35.5t42 -28.5t43.5 -8q28 1 73.5 19t85.5 18q37 0 82.5 -18t76.5 -18q24 0 44.5 9t40 27t32 33t31.5 41q39 54 67 128v1q-8 2 -17 6.5t-31 20t-38.5 34t-29.5 51t-14 69.5zM652.5 691.5q26.5 30.5 40.5 68t10 75.5q-37 -1 -76.5 -20t-65.5 -48
q-26 -28 -41.5 -65.5t-10.5 -73.5q39 -3 78 15t65.5 48.5z" />
    <glyph glyph-name="gengduo" unicode="&#xe600;" 
d="M119 638l393 -393l393 393q9 9 22.5 9t23 -9.5t9.5 -22.5t-9 -23l-412 -411q-11 -11 -26 -9q-16 -3 -28 9l-412 411q-9 9 -9 22.5t9.5 23t23 9.5t22.5 -9z" />
    <glyph glyph-name="MG" unicode="&#xe610;" 
d="M512 896q-104 0 -199 -40.5t-163.5 -109t-109 -163.5t-40.5 -199t40.5 -199t109 -163.5t163.5 -109t199 -40.5t199 40.5t163.5 109t109 163.5t40.5 199t-40.5 199t-109 163.5t-163.5 109t-199 40.5zM511 -71q-93 0 -177 36t-145 97t-97 145t-36 177t36 177t97 145t145 97
t176.5 36t177 -36t145.5 -97t97 -145t36 -177t-36 -177t-97 -145t-145.5 -97t-176.5 -36v0zM508 699h-1q-130 0 -222 -92t-92 -223v0q0 -131 92 -223t222.5 -92t223 92t92.5 223t-92.5 223t-222.5 92zM700 323v-45l-188 -108l-188 108v217l188 108l187 -108l-79 -45l-108 62
l-68 -40l107 -62l-79 -46l-68 40v-80l108 -63l69 40l-63 37l80 45l15 -8z" />
    <glyph glyph-name="LTC" unicode="&#xe611;" 
d="M512 896q-212 0 -362 -150t-150 -362t150 -362t362 -150t362 150t150 362t-150 362t-362 150zM512 -70q-93 0 -177 36t-145 97t-96.5 145t-35.5 176t35.5 176t96.5 145t145 97t177 36t177 -36t145 -97t96.5 -145t35.5 -176t-36 -176t-97 -145t-145 -97t-176 -36z
M508.5 698q-130.5 0 -222 -91.5t-91.5 -222.5t91.5 -222.5t222 -91.5t222.5 91.5t92 222.5t-92 222.5t-222.5 91.5zM655 220h-280l18 68l10 41l-41 -13l13 51l41 14l48 180h109l-34 -136l45 17l-14 -51l-44 -17l-21 -86h171z" />
    <glyph glyph-name="BTC" unicode="&#xe612;" 
d="M512 896q-104 0 -199 -40.5t-163.5 -109t-109 -163.5t-40.5 -199t40.5 -199t109 -163.5t163.5 -109t199 -40.5t199 40.5t163.5 109t109 163.5t40.5 199t-40.5 199t-109 163.5t-163.5 109t-199 40.5zM511 -71q-93 0 -177 36t-145 97t-97 145t-36 177t36 177t97 145t145 97
t176.5 36t177 -36t145.5 -97t97 -145t36 -177t-36 -177t-97 -145t-145.5 -97t-176.5 -36v0zM508 699h-1q-130 0 -222 -92t-92 -223v0q0 -131 92 -223t222.5 -92t223 92t92.5 223t-92.5 223t-222.5 92zM569 455q0 36 -59 36h-29v-78h53q13 2 24 12.5t11 29.5v0zM532 372h-51
v-84h44q63 0 63 49q0 14 -12.5 23t-23 10.5t-20.5 1.5v0zM556 242h-9v-65h-39v65h-27v-65h-40v65h-76l1 42h30q16 0 16 19v176q0 15 -20 15h-30v41h79v64h40v-64h27v64h39v-65q37 -3 65 -18t32 -44q2 -14 -0.5 -26t-8 -19.5t-11 -13t-9.5 -8.5l-4 -2q2 -1 6 -2t13 -6t16 -12
t13 -19.5t6 -27.5q0 -94 -109 -94z" />
    <glyph glyph-name="ETC" unicode="&#xe613;" 
d="M0 384q0 -139 68.5 -257t186.5 -186.5t257 -68.5t257 68.5t186.5 186.5t68.5 257t-68.5 257t-186.5 186.5t-257 68.5t-257 -68.5t-186.5 -186.5t-68.5 -257zM56 384q0 93 36 177t97 145t145 97t176.5 36t177 -36t145.5 -97t97 -145t36 -177t-36 -177t-97 -145t-145.5 -97
t-177 -36t-176.5 36t-145 97t-97 145t-36 177zM193 384q0 -131 92 -223t222.5 -92t222.5 92t92 223t-92 223t-222 92h-1q-130 0 -222 -92t-92 -223v0zM515 429v210l149 -264zM510 430l-3 1l-2 -1v244h5v-244zM500 429l-150 -54l150 264v-210zM354 351l146 -93v-129zM505 271
l2 -1l3 1v-177h-5v177zM517 258l148 93l-148 -222v129z" />
    <glyph glyph-name="LTC1" unicode="&#xe614;" 
d="M472 92l63 240l129 48l38 145l-129 -48l100 387h-305l-132 -511l-116 -42l-37 -145l115 43l-30 -117l-49 -188h789l49 188h-485z" />
    <glyph glyph-name="BTC1" unicode="&#xe615;" 
d="M650 538q0 26 -14 43.5t-37 25t-42.5 10t-40.5 2.5h-65v-177h120q30 4 54.5 27.5t24.5 68.5v0zM567 349h-116v-193h100q143 0 143 112q0 25 -15.5 42.5t-38.5 25.5t-40.5 10.5t-32.5 2.5zM622 52h-20v-148h-91v148h-60v-148h-91v148h-175l3 95h70q34 0 34 44v401
q0 34 -45 34h-68v93h181v145h91v-145h60v145h91v-147q37 -3 71.5 -12t67.5 -25t55 -43t26 -61q4 -32 -2 -59.5t-18 -44.5t-24.5 -30t-21.5 -18l-9 -5q5 -1 13 -4t29 -14.5t37.5 -27t29.5 -44t13 -63.5q0 -214 -248 -214h1z" />
    <glyph glyph-name="ETC1" unicode="&#xe616;" 
d="M504 469v396l282 -498l-282 102v0zM494 472l-4 2l-5 -2v458h9v-458v0zM476 469l-282 -102l282 498v-396zM200 322l276 -174v-245zM485 172l5 -3l4 3v-334h-9v334zM508 148l279 174l-279 -419v245z" />
    <glyph glyph-name="MG1" unicode="&#xe617;" 
d="M927 244v-100l-415 -240l-416 240v480l416 240l414 -239l-176 -101l-238 137l-152 -87l239 -137l-176 -102l-151 87v-177l240 -138l153 88l-139 81l176 101l33 -19v0z" />
    <glyph glyph-name="fanhui" unicode="&#xe618;" 
d="M1023 448h-779l358 358l-90 90l-511 -512l511 -512l90 90l-358 358h779v128z" />
    <glyph glyph-name="jiaoyimingxi" unicode="&#xe619;" 
d="M1 706h790v-162h-790v162zM1024 624l-245 -229v459zM233 224h791v-161h-791v161zM1 144l245 229v-459z" />
    <glyph glyph-name="quanpingzhanshi" unicode="&#xe61a;" 
d="M8 781h1008v-794h-1008v794zM1024 -21h-1023v809h1023v-809zM16 -6h993v779h-993v-779zM756 627v-204h-22v167l-167 -167l-16 16l168 167h-167v22zM457 344l-166 -167v167h-22v-204h204v22h-167l167 167z" />
    <glyph glyph-name="guanli" unicode="&#xe61d;" 
d="M772 448h-25l196 195v-24l-196 196h25l-196 -196v24zM564 631l196 196l195 -196l-195 -195l-196 195v0zM796 863q-15 16 -36.5 16t-36.5 -16l-195 -195q-16 -15 -16 -36.5t16 -36.5l195 -196q15 -15 36.5 -15t36.5 15l196 196q15 15 15 36.5t-15 36.5l-196 195v0z
M1004 680q8 -8 14 -22.5t6 -26t-6 -26t-14 -22.5l-196 -196q-8 -8 -22.5 -14t-26 -6t-26 6t-22.5 14l-196 196q-8 8 -14 22.5t-6 26t6 26t14 22.5l196 195q8 9 22.5 15t26 6t26 -6t22.5 -15l196 -195v0zM69 821v0q-21 0 -36.5 -15t-15.5 -37v0v-276v0q0 -21 15.5 -36.5
t36.5 -15.5v0h276v0q22 0 37 15.5t15 36.5v0v276v0q0 22 -15 37t-37 15v0h-276zM345 839v0q29 0 49 -20.5t20 -49.5v0v-276v0q0 -28 -20 -48.5t-49 -20.5v0h-276v0q-28 0 -48.5 20.5t-20.5 48.5v0v276v0q0 29 20.5 49.5t48.5 20.5v0h276zM69 269v0q-21 0 -36.5 -15
t-15.5 -37v-276v0q0 -21 15.5 -36.5t36.5 -15.5v0h276v0q22 0 37 15.5t15 36.5v0v276v0q0 22 -15 37t-37 15v0h-276v0zM345 286v0q29 0 49 -20t20 -49v-276v0q0 -29 -20 -49t-49 -20v0h-276v0q-28 0 -48.5 20t-20.5 49v0v276v0q0 29 20.5 49t48.5 20v0h276v0zM621 269v0
q-21 0 -36 -15t-15 -37v-276v0q0 -21 15 -36.5t36 -15.5v0h277v0q21 0 36.5 15.5t15.5 36.5v0v276v0q0 22 -15.5 37t-36.5 15v0h-277v0zM898 286v0q28 0 48.5 -20t20.5 -49v-276v0q0 -29 -20.5 -49t-48.5 -20v0h-277v0q-28 0 -48.5 20t-20.5 49v0v276v0q0 29 20.5 49
t48.5 20v0h277v0z" />
    <glyph glyph-name="baoxiangui" unicode="&#xe61e;" 
d="M306 523v0q-24 0 -40.5 -16.5t-16.5 -39.5q0 -17 9.5 -30.5t24.5 -20.5l-5 8v-76h56v76l-5 -8q14 6 23.5 21t9.5 30v0h-9v-9h9v9q0 23 -16.5 39.5t-39.5 16.5v0zM353 467v8h-8v-8q0 -25 -23 -36l-5 -2v-72l8 9h-39l9 -9v72l-5 2q-10 5 -16.5 15t-7.5 21q1 16 12 27.5
t28 11.5v0v0q16 0 27.5 -11.5t11.5 -27.5h8zM194 845q-73 0 -124.5 -53.5t-51.5 -128.5v-763l-17 17h125l-17 -16q1 23 17 44q31 42 100 42h572q69 0 100 -42q16 -21 17 -44l-17 16h125l-17 -17v763q0 75 -51.5 128.5t-124.5 53.5h-636v0zM830 862q80 0 136.5 -58.5
t56.5 -140.5v-763h-125q0 3 -1 8t-7 17t-15.5 21t-29.5 16.5t-47 7.5h-572q-80 0 -97 -57l-3 -13h-125v763q0 82 56.5 140.5t136.5 58.5h636zM830 70q40 0 68 29t28 70v494q0 41 -28 70t-68 29h-636q-40 0 -68 -29t-28 -70v-494q0 -41 28 -70t68 -29h636zM81 169v494
q0 48 33 82t80 34h636q47 0 80 -34t33 -82v-494q0 -48 -33 -82t-80 -34h-636q-47 0 -80 34t-33 82v0zM903 663q0 31 -21.5 53t-51.5 22h-636q-30 0 -51.5 -22t-21.5 -53v-494q0 -31 21.5 -53t51.5 -22h636q30 0 51.5 22t21.5 53v38h-8q-17 1 -28.5 8t-11.5 15.5t11.5 15.5
t28.5 7l8 1v308h-8q-17 1 -28.5 8t-11.5 15t11.5 15t28.5 8h8v55zM894 625q-23 -1 -39.5 -12.5t-16.5 -27.5t16 -27.5t40 -12.5l-8 8v-291l8 8q-23 -1 -39.5 -12t-16.5 -27.5t16 -28t40 -12.5l-8 9v-30q0 -24 -16.5 -41t-39.5 -17h-636q-23 0 -39.5 17t-16.5 41v494
q0 24 16.5 41t39.5 17h636q23 0 39.5 -17t16.5 -41v-47zM178 442v1q0 52 37.5 89.5t90.5 37.5v0q52 0 89.5 -37.5t37.5 -90t-37.5 -90t-89.5 -37.5v0q-53 0 -90.5 37.5t-37.5 89.5v0zM450 442.5q0 59.5 -42 102t-102 42.5v0q-60 0 -102.5 -42.5t-42.5 -101.5v-1v0
q0 -59 42.5 -101.5t102.5 -42.5v0q60 0 102 42.5t42 102zM576 543.5q0 -10.5 -7.5 -17.5t-17.5 -7t-17 7t-7 18v0q0 10 7 17t17 7v0q10 0 17.5 -7t7.5 -17.5zM509 544v0q0 -18 12.5 -30t29.5 -12t29.5 12t12.5 30v0q0 17 -12.5 29t-29.5 12v0v0q-17 0 -29.5 -12t-12.5 -29v0
zM527 345q0 10 7.5 17.5t17.5 7.5t17.5 -7.5t7.5 -17.5t-7.5 -17.5t-17.5 -7.5t-17.5 7.5t-7.5 17.5zM594 345q0 17 -12.5 29.5t-29.5 12.5v0q-17 0 -29.5 -12t-12.5 -29.5t12.5 -30t29.5 -12.5t29.5 12.5t12.5 29.5v0zM527 451.5q0 10.5 7.5 17.5t17.5 7v0q10 0 17.5 -7
t7.5 -17.5t-7.5 -17.5t-17.5 -7t-17.5 7t-7.5 17.5zM594 451.5q0 17.5 -12.5 29.5t-29.5 12v0v0q-17 0 -29.5 -12t-12.5 -29.5t12.5 -29.5t29.5 -12t29.5 12t12.5 29.5zM691 543.5q0 -10.5 -7 -17.5t-17.5 -7t-17.5 7t-7 17.5t7 17.5t17.5 7t17.5 -7t7 -17.5zM625 543.5
q0 -17.5 12 -29.5t29.5 -12t30 12t12.5 30v0q0 17 -12.5 29t-29.5 12v0v0q-18 0 -30 -12t-12 -29.5zM643 345.5q0 10.5 7 17.5t18 7v0q10 0 17 -7.5t7 -17.5t-7 -17t-17 -7t-17.5 7t-7.5 17.5zM709 345.5q0 17.5 -12 29.5t-29 12v0v0q-18 0 -30 -12t-12 -30v0q0 -17 12 -29
t29.5 -12t29.5 12t12 29.5zM643 451.5q0 10.5 7 17.5t18 7v0q10 0 17 -7t7 -17.5t-7 -17.5t-17.5 -7t-17.5 7t-7 17.5zM709 451.5q0 17.5 -12 29.5t-29 12v0v0q-18 0 -30 -12t-12 -29v0v-1q0 -17 12 -29t29.5 -12t29.5 12t12 29.5zM805 543.5q0 -10.5 -7.5 -17.5t-17.5 -7
t-17.5 7t-7.5 17.5t7.5 17.5t17.5 7t17.5 -7t7.5 -17.5zM738 544q0 -18 12.5 -30t29.5 -12t29.5 12t12.5 30v0q0 17 -12.5 29t-29.5 12v0q-17 0 -29.5 -12t-12.5 -29v0zM757 345q0 10 7 17.5t17 7.5v0q10 0 17.5 -7.5t7.5 -17.5t-7.5 -17.5t-17.5 -7.5t-17 7.5t-7 17.5z
M823 345.5q0 17.5 -12.5 29.5t-29.5 12v0q-17 0 -29 -12.5t-13 -29.5v0q0 -17 12.5 -29.5t29.5 -12.5t29.5 12.5t12.5 30zM757 451.5q0 10.5 7 17.5t17 7v0q10 0 17.5 -7t7.5 -17.5t-7.5 -17.5t-17.5 -7t-17 7t-7 17.5zM823 451.5q0 17.5 -12 29.5t-30 12v0v0q-17 0 -29 -12
t-12 -29.5t12 -29.5t29 -12t29.5 12t12.5 29.5z" />
    <glyph glyph-name="jiaoyi" unicode="&#xe61f;" 
d="M174 476l-1 -5l4 -4l75 -62l13 -10l1 16q10 93 80.5 156t164.5 63v0q65 0 130 -41t93 -100l5 12l-81 -23l-23 -6l21 -10l192 -87l12 -5v14q0 95 -46.5 175.5t-127 127t-175.5 46.5v0q-110 0 -209 -75.5t-128 -181.5zM843 384v-1h9l3 8l-192 87l-1 -16l82 22l10 3l-5 9
q-29 63 -99 107t-139 44v0q-101 0 -176 -67.5t-86 -166.5l14 5l-75 62l3 -9q27 102 121 173.5t199 71.5q90 0 166.5 -44.5t121 -121t44.5 -166.5v0zM288 280l-8 -12h101l-12 14l-2 2l-191 129l-12 9l-1 -15q-1 -12 -1 -23v0q0 -95 46.5 -175.5t127 -127t175.5 -46.5
q125 0 221 78.5t121 199.5l1 7l-5 3l-80 44l-12 6l-1 -13q-9 -94 -79.5 -158t-165.5 -64v0q-65 0 -130.5 41.5t-92.5 100.5v0zM773 358l-12 -6l80 -44l-5 9q-23 -115 -114.5 -190t-210.5 -75q-90 0 -166.5 44.5t-121 121t-44.5 166.5q0 11 1 22h-9l-5 -7l191 -129l5 7l-6 -6
l6 6v8h-95l5 -12q30 -63 100 -107.5t139 -44.5v0q102 0 177 68.5t85 168.5v0zM406 266v-8h54v173h-9v-8h1v8l-7 -5l113 -164l3 -4h49v242h-55v-171h9v9h-1v-9l7 5l-112 163l-2 3h-50v-234zM414 483h37l-7 4l112 -163l2 -3h14v171l-8 -9h37l-8 9v-226l8 9h-36l7 -4l-112 165
l-3 4h-14v-174l8 9h-37l9 -9v226zM174 476l-1 -5l4 -4l75 -62l13 -10l1 16q10 93 80.5 156t164.5 63v0q65 0 130 -41t93 -100l5 12l-81 -23l-23 -6l21 -10l192 -87l12 -5v14q0 95 -46.5 175.5t-127 127t-175.5 46.5v0q-110 0 -209 -75.5t-128 -181.5zM843 384v-1h9l3 8
l-192 87l-1 -16l82 22l10 3l-5 9q-29 63 -99 107t-139 44v0q-101 0 -176 -67.5t-86 -166.5l14 5l-75 62l3 -9q27 102 121 173.5t199 71.5q90 0 166.5 -44.5t121 -121t44.5 -166.5v0zM288 280l-8 -12h101l-12 14l-2 2l-191 129l-12 9l-1 -15q-1 -12 -1 -23v0
q0 -95 46.5 -175.5t127 -127t175.5 -46.5q125 0 221 78.5t121 199.5l1 7l-5 3l-80 44l-12 6l-1 -13q-9 -94 -79.5 -158t-165.5 -64v0q-65 0 -130.5 41.5t-92.5 100.5v0zM773 358l-12 -6l80 -44l-5 9q-23 -115 -114.5 -190t-210.5 -75q-90 0 -166.5 44.5t-121 121
t-44.5 166.5q0 11 1 22h-9l-5 -7l191 -129l5 7l-6 -6l6 6v8h-95l5 -12q30 -63 100 -107.5t139 -44.5v0q102 0 177 68.5t85 168.5v0zM406 266v-8h54v173h-9v-8h1v8l-7 -5l113 -164l3 -4h49v242h-55v-171h9v9h-1v-9l7 5l-112 163l-2 3h-50v-234zM414 483h37l-7 4l112 -163
l2 -3h14v171l-8 -9h37l-8 9v-226l8 9h-36l7 -4l-112 165l-3 4h-14v-174l8 9h-37l9 -9v226zM174 476l-1 -5l4 -4l75 -62l13 -10l1 16q10 93 80.5 156t164.5 63v0q65 0 130 -41t93 -100l5 12l-81 -23l-23 -6l21 -10l192 -87l12 -5v14q0 95 -46.5 175.5t-127 127t-175.5 46.5v0
q-110 0 -209 -75.5t-128 -181.5zM843 384v-1h9l3 8l-192 87l-1 -16l82 22l10 3l-5 9q-29 63 -99 107t-139 44v0q-101 0 -176 -67.5t-86 -166.5l14 5l-75 62l3 -9q27 102 121 173.5t199 71.5q90 0 166.5 -44.5t121 -121t44.5 -166.5v0zM288 280l-8 -12h101l-12 14l-2 2
l-191 129l-12 9l-1 -15q-1 -12 -1 -23v0q0 -95 46.5 -175.5t127 -127t175.5 -46.5q125 0 221 78.5t121 199.5l1 7l-5 3l-80 44l-12 6l-1 -13q-9 -94 -79.5 -158t-165.5 -64v0q-65 0 -130.5 41.5t-92.5 100.5v0zM773 358l-12 -6l80 -44l-5 9q-23 -115 -114.5 -190t-210.5 -75
q-90 0 -166.5 44.5t-121 121t-44.5 166.5q0 11 1 22h-9l-5 -7l191 -129l5 7l-6 -6l6 6v8h-95l5 -12q30 -63 100 -107.5t139 -44.5v0q102 0 177 68.5t85 168.5v0zM406 266v-8h54v173h-9v-8h1v8l-7 -5l113 -164l3 -4h49v242h-55v-171h9v9h-1v-9l7 5l-112 163l-2 3h-50v-234z
M414 483h37l-7 4l112 -163l2 -3h14v171l-8 -9h37l-8 9v-226l8 9h-36l7 -4l-112 165l-3 4h-14v-174l8 9h-37l9 -9v226zM174 476l-1 -5l4 -4l75 -62l13 -10l1 16q10 93 80.5 156t164.5 63v0q65 0 130 -41t93 -100l5 12l-81 -23l-23 -6l21 -10l192 -87l12 -5v14
q0 95 -46.5 175.5t-127 127t-175.5 46.5v0q-110 0 -209 -75.5t-128 -181.5zM843 384v-1h9l3 8l-192 87l-1 -16l82 22l10 3l-5 9q-29 63 -99 107t-139 44v0q-101 0 -176 -67.5t-86 -166.5l14 5l-75 62l3 -9q27 102 121 173.5t199 71.5q90 0 166.5 -44.5t121 -121t44.5 -166.5
v0zM288 280l-8 -12h101l-12 14l-2 2l-191 129l-12 9l-1 -15q-1 -12 -1 -23v0q0 -95 46.5 -175.5t127 -127t175.5 -46.5q125 0 221 78.5t121 199.5l1 7l-5 3l-80 44l-12 6l-1 -13q-9 -94 -79.5 -158t-165.5 -64v0q-65 0 -130.5 41.5t-92.5 100.5v0zM773 358l-12 -6l80 -44
l-5 9q-23 -115 -114.5 -190t-210.5 -75q-90 0 -166.5 44.5t-121 121t-44.5 166.5q0 11 1 22h-9l-5 -7l191 -129l5 7l-6 -6l6 6v8h-95l5 -12q30 -63 100 -107.5t139 -44.5v0q102 0 177 68.5t85 168.5v0zM406 266v-8h54v173h-9v-8h1v8l-7 -5l113 -164l3 -4h49v242h-55v-171h9
v9h-1v-9l7 5l-112 163l-2 3h-50v-234zM414 483h37l-7 4l112 -163l2 -3h14v171l-8 -9h37l-8 9v-226l8 9h-36l7 -4l-112 165l-3 4h-14v-174l8 9h-37l9 -9v226zM85 879q-28 0 -48 -20t-20 -48v-853q0 -28 20 -48t48 -20h853q28 0 48 20t20 48v853q0 28 -20 48t-48 20h-853z
M938 896q35 0 60 -25t25 -60v-853q0 -35 -25 -60t-60 -25h-853q-35 0 -60 25t-25 60v853q0 35 25 60t60 25h853z" />
    <glyph glyph-name="quanqiu" unicode="&#xe620;" 
d="M148 384q0 -99 49 -182.5t132.5 -132.5t182.5 -49t182.5 49t132.5 132.5t49 182.5t-49 182.5t-132.5 132.5t-182.5 49t-182.5 -49t-132.5 -132.5t-49 -182.5zM858 384q0 -94 -46 -174t-126 -126t-174 -46t-174 46t-126 126t-46 174t46 174t126 126t174 46t174 -46
t126 -126t46 -174zM612 128q25 19 36 45q5 11 15 27l8 12q9 15 -7 34.5t-41 30.5q-22 10 -51 29q-2 2 -8.5 6.5t-12.5 9t-7 4.5q-13 9 -48 4q-25 -4 -33 -1q-22 10 -60 40l-3 2l-16 12q-14 11 -18 23t-4 40v4l-9 -8q5 -1 17 0h9q25 1 33 -8l1.5 -2t3.5 -5t3 -4q7 -8 13 -12
q11 -7 20 1q10 8 3 30l-4 8q-2 7 -5 13q-3 7 14 19l3 1q10 7 15 12q4 3 10 9q1 1 4.5 3.5t6 4.5t1.5 2q4 3 6 5q18 16 25 25t5 17q-5 17 -30.5 35.5t-42.5 13.5q-4 -1 -23 -20l-11 -11l-6 -6l5 -7h9v30v0v3q-1 5 -8 12l-3 3v-3q0 3 11 12q2 1 5 4l4.5 4t5.5 4q5 4 8 8l7 8
l-9 5l-4.5 3.5l-4.5 3.5l-4 2q-14 10 -21 7q-6 -3 -19 -7t-19 -7l3 -8h8q0 6 -1 14l-8 -2l3 -7q36 16 75 21l-4 1l24 -10l-3 3l17 -20l17 -18l1 -2h2l15 -5l5 -2l4 4l23 22l4 4l-2 5l-6 16l1 -3v14l-10 -8q69 -10 125 -50l5 7v9q-6 -1 -24 -3l1 -8l5 7q-5 2 -9 4q-2 0 -5 1
l-19 7l9 -19q17 -36 34 -71q5 -10 21 -32q15 -21 20 -32q3 -7 4 -13q2 -10 3 -23v-29q1 -28 2 -44q0 -6 2 -13q5 -19 19 -40q10 -15 21 -28l2 -2h2q3 -2 8 -3q11 -2 20 -2h7l-9 11q-9 -33 -31.5 -72.5t-46.5 -63.5q-26 -27 -71 -51t-82 -31l9 -11q12 29 35 46zM555 74l16 3
q39 7 86.5 32.5t75.5 53.5q25 25 49.5 67t32.5 77l3 12l-12 -2h-5q-8 0 -16 2q-3 1 -7 2l4 -3q-11 12 -19 26q-13 19 -17 35q-2 5 -2 10q-1 16 -1 43v4q0 13 -1 26t-3 25q-2 9 -6 17q-5 13 -21 35q-15 21 -19 30q-22 44 -35 71l-8 -4l-3 -8q2 0 5 -1l6 -3l2 -1h3q17 2 23 3
l23 2l-19 13q-25 18 -63.5 33t-68.5 20l-10 1v-24v-3l6 -16l3 9l-24 -22l9 2l-15 5l3 -2l-17 17l-16 20l-2 1l-2 1l-24 10l-2 1l-2 -1q-41 -6 -80 -23l-6 -2l1 -7q1 -7 1 -11v-13l12 5q6 3 19 7q13 5 20 7h-1l-1 -1q3 -1 7 -4l3 -2l2.5 -1.5t5 -3.5t2.5 -3l5 8l-7 5
q-1 -1 -6 -5q0 -1 -2.5 -3t-5 -3.5t-2.5 -2.5q-3 -2 -6 -5q-15 -13 -16 -22q-1 -5 3 -10q1 -1 3 -2l2 -2l3 -4v-29l-1 -18l15 12q2 1 7 7l3.5 3.5l5 5l2.5 2.5q8 8 12.5 12t3.5 4q9 2 29 -12.5t22 -24.5q1 -4 -24 -25l-5 -5l-2.5 -2t-6 -4.5t-4.5 -3.5q-7 -6 -11 -10
q-4 -3 -13 -9l-2 -2q-16 -10 -21 -18.5t0 -21.5l1 -2.5t2.5 -5.5t2.5 -4q1 -5 2 -8l2 -6t1 -4v-1q-5 4 -9 9q-1 1 -3 3.5t-3.5 4.5l-1.5 2q-13 16 -47 15h-9q-11 -1 -15 0h-9v-13q0 -32 5.5 -47.5t23.5 -28.5q9 -7 19 -15q39 -31 63 -41q12 -6 43 -1q28 4 36 -1l12 -8.5
t16 -11.5q29 -20 54 -31q15 -7 29 -20.5t10 -19.5l-7 -12q-11 -17 -17 -29q-9 -22 -31 -38q-26 -21 -40 -54zM437 254q-2 -7 -3 -11q-3 -8 -7 -16q-4 -6 2.5 -24t12.5 -24q21 -21 40 -37q7 -6 6 -13t-12 -26q-5 -9 -9 -18l9 5q-42 5 -92.5 30t-80.5 55q-36 36 -61.5 97
t-25.5 111v1q0 109 71 192l-15 5q0 -3 1 -9v-6q3 -19 2 -25v-5q-3 -44 1 -63q5 -19 18 -38q5 -8 10 -26l2 -7q1 -8 3 -12q4 -15 26 -29l5 -4q4 -3 6 -4q8 -6 21 -17l5 -4q31 -26 48 -37q10 -6 12 -7q11 -8 8 -21zM442 302l-6 4l-6 4q-17 10 -47 35l-5 4q-13 11 -22 17
q-3 3 -6 5q-1 0 -2 1l-4 3q-17 11 -19 19q-2 6 -3 12q-1 3 -2 7q-5 21 -12 32q-11 16 -15 32t-1 57v6q1 8 -2 28v3v3q-1 5 -1 8l-2 20l-13 -15q-31 -36 -53 -95.5t-22 -106.5v-1q0 -130 92 -221q31 -32 85 -58t98 -32h7l2 6q2 6 8 16q14 25 14.5 36.5t-12.5 23.5
q-20 17 -39 36q-2 2 -8 16q-2 5 -3 11l-1 1h-1q6 9 9 18q1 6 3 14l3 12q6 24 -14 39v0zM906 -111q42 0 71.5 29.5t29.5 71.5v788q0 42 -29.5 71.5t-71.5 29.5h-788v0q-42 0 -71.5 -29.5t-29.5 -71.5v-788v0q0 -42 29.5 -71.5t71.5 -29.5h788zM118 -128v0q-49 0 -83.5 34.5
t-34.5 83.5v788q0 49 34.5 83.5t83.5 34.5h788q49 0 83.5 -34.5t34.5 -83.5v-788q0 -49 -34.5 -83.5t-83.5 -34.5h-788z" />
    <glyph glyph-name="VIPBG" unicode="&#xe621;" horiz-adv-x="1075" 
d="M831 698l41 -51q21 -36 5 -77q-5 -15 -36 -46q-39 -30 -103 -30q-71 0 -102 30.5t-31 76.5q0 54 46 92l82 51l-189 149l-195 -143l82 -52q46 -38 46 -92q0 -41 -30 -71q-29 -36 -103 -36q-64 0 -102 30q-29 20 -36 46q-16 41 5 77l41 46l-225 62l107 -389h814l108 389z
M134 345h809v-56h-809v56zM493 212l-133 -338h-93l-138 338h87l87 -241q3 -5 5.5 -15t4.5 -15q0 5 6 10q0 5 10 25l82 236h82zM600 -126h-82v338h82v-338zM795 -8h-62v-118h-82v338h149q133 0 133 -108q4 -57 -30.5 -84.5t-107.5 -27.5zM790 151h-52v-103h52q30 0 48 14
t18 37q-4 27 -20 39.5t-46 12.5z" />
    <glyph glyph-name="tiaozhuan" unicode="&#xe622;" 
d="M335 449l-65 -65l335 -326l130 131l-195 195l195 205l-130 130z" />
    <glyph glyph-name="man-user" unicode="&#xe609;" 
d="M512 394q80 0 136.5 69t56.5 166q0 43 -4 75t-16.5 63.5t-33.5 51.5t-56 32.5t-83 12.5t-83.5 -12.5t-56 -32.5t-33 -51.5t-16.5 -63.5t-4 -75q0 -97 56.5 -166t136.5 -69zM147 36zM877 30zM877 46q-1 61 -5 100.5t-14 76t-27 58.5t-46.5 41.5t-69 31.5t-97.5 22
q-4 -4 -11 -10.5t-34.5 -18t-60.5 -11.5t-59.5 10t-36.5 20l-10 10q-57 -10 -96.5 -22t-68.5 -31t-46 -40.5t-28 -57t-14.5 -74.5t-4.5 -98l-1 -17v-24q2 -4 7.5 -11.5t31.5 -26t62.5 -33t106.5 -26t157 -11.5t157 11.5t106.5 26t62.5 33t31.5 26t7.5 11.5v0v18v16z" />
    <glyph glyph-name="locked-padlock" unicode="&#xe60a;" 
d="M786 544h-45v91q0 96 -66.5 162.5t-162.5 66.5t-162.5 -66.5t-66.5 -162.5v-91h-45q-38 0 -65 -27t-27 -64v-458q0 -37 27 -64t65 -27h548q38 0 65 27t27 64v458q0 37 -27 64t-65 27zM512 133q-38 0 -64.5 26.5t-26.5 64.5t26.5 64.5t64.5 26.5t64.5 -26.5t26.5 -64.5
t-26.5 -64.5t-64.5 -26.5zM654 544h-284v91q0 59 42 100.5t100 41.5t100 -41.5t42 -100.5v-91z" />
    <glyph glyph-name="anquan" unicode="&#xe60b;" 
d="M918 752q-18 18 -46 18h-31q-72 0 -132 14q-29 7 -63.5 28.5t-64.5 46t-36 27.5q-16 10 -35 10q-18 0 -37 -10q-86 -86 -160 -102q-60 -14 -132 -14h-31q-26 0 -44 -18q-21 -18 -21 -47v-160q0 -121 22.5 -223t56 -169t79 -120t86 -81t81.5 -47.5t60 -24.5t28 -6h24
q12 3 19.5 4.5t40 13.5t57 26t64 42.5t69 62t63 86t55 113.5t35.5 144.5t14 178.5v160q0 29 -21 47z" />
    <glyph glyph-name="checked" unicode="&#xe60e;" 
d="M0 385q0 -104 40.5 -199t109 -163.5t163 -108.5t198.5 -40t199 40t163.5 108.5t108.5 163.5t40 199t-40 198.5t-108.5 163t-163.5 109t-199 40.5t-198.5 -40.5t-163 -109t-109 -163t-40.5 -198.5zM380 154l263 -263q165 44 272 181t107 313v14l-206 191zM834 580l-47 47
q-17 17 -42 17t-42 -17l-268 -267l-116 117q-17 17 -42 17t-41 -17l-47 -47q-17 -17 -17 -42t17 -42l205 -206q17 -17 42 -17t41 17l47 47q4 4 7 8l303 302q17 16 17 41t-17 42z" />
    <glyph glyph-name="xiajiang" unicode="&#xe624;" horiz-adv-x="1025" 
d="M429 816q0 33 24.5 56.5t60 23.5t60.5 -23.5t25 -56.5l-2 -645l281 321q25 24 60.5 24t60.5 -24q11 -10 18 -26.5t7 -31t-7 -31t-18 -26.5l-421 -481q-27 -25 -65 -23q-39 -2 -65 23l-421 481q-11 10 -18 26.5t-7 31t7 31t18 26.5q25 24 60.5 24t60.5 -24l278 -318l3 642
v0z" />
    <glyph glyph-name="shangsheng" unicode="&#xe625;" horiz-adv-x="1025" 
d="M429 -48q0 -33 24.5 -56.5t60 -23.5t60.5 23.5t25 56.5l-2 645l281 -321q25 -24 60.5 -24t60.5 24q11 10 18 26.5t7 31t-7 31t-18 26.5l-421 481q-27 25 -65 23q-39 2 -65 -23l-421 -481q-11 -10 -18 -26.5t-7 -31t7 -31t18 -26.5q25 -24 60.5 -24t60.5 24l278 318
l3 -642v0z" />
    <glyph glyph-name="bitequanqiuLOGO" unicode="&#xe626;" horiz-adv-x="1197" 
d="M457 417l271 469q1 1 1 3q0 7 -7 7h-399q-15 0 -32 -9.5t-25 -23.5l-257 -446q-9 -15 -9 -33t9 -33l257 -446q8 -14 25 -23.5t32 -9.5h399q7 0 7 7q0 2 -1 3l-271 469q-9 15 -9 33t9 33zM1196 395q-3 7 -11 13t-16 6v0h-598v0q-7 0 -13 -5t-7 -11q-2 -7 -2 -14
q0 -16 8 -30l89 -154l2 -2h110h1q12 0 20.5 -8.5t8.5 -20.5v-1v0q0 -16 -8 -29l-49 -85l98 -171q6 -11 19 -11v0h26q16 0 32 9.5t24 22.5l260 450q8 14 8 30v0v2q0 4 -2 9zM1092 584l-161 279q-8 14 -24.5 23.5t-32.5 9.5t-32.5 -9.5t-24.5 -23.5l-161 -279q-1 -2 -1 -3
q0 -7 7 -7h425q6 0 6 7q0 1 -1 3z" />
    <glyph glyph-name="wancheng1" unicode="&#xe627;" 
d="M512 836q-92 0 -176 -36t-144.5 -96.5t-96 -144t-35.5 -175.5t36 -175.5t96.5 -144t144 -96.5t175.5 -36t175.5 36t144 96.5t96.5 144t36 175.5t-35.5 175.5t-96 144t-144.5 96.5t-176 36zM824 527l-354 -354q-10 -10 -25 -10t-26 10l-219 219q-11 11 -11 26t11 25l17 17
q10 10 25 10t25 -10l177 -177l313 312q10 10 25 10t25 -10l17 -17q11 -10 11 -25t-11 -26z" />
    <glyph glyph-name="bitequanqiuLogo" unicode="&#xe628;" horiz-adv-x="1198" 
d="M457 417l270 469q4 6 -2 9q-1 1 -3 1h-399q-38 0 -57 -33l-257 -446q-9 -15 -9 -32.5t9 -33.5l257 -446q19 -33 57 -33h399q7 0 7 7q0 2 -1 3l-271 469q-19 33 0 66zM1196 394q-7 20 -28 20h-597q-16 0 -20 -16q-6 -23 6 -44l89 -154l2 -2h110q12 0 21 -8t9 -20v-1
q0 -16 -8 -30l-49 -85l98 -171q7 -11 20 -11h26q37 0 56 33l259 450q8 14 8 29q-1 8 -2 10zM1092 584l-161 279q-19 33 -57 33t-57 -33l-161 -279q-3 -6 3 -9q1 -1 3 -1h424q8 0 7 7q0 2 -1 3z" />
    <glyph glyph-name="bitequanqiuLOGO1" unicode="&#xe62b;" horiz-adv-x="4778" 
d="M390 412l230 402v5q0 3 -6 3h-341q-26 0 -45 -28l-219 -382q-19 -28 0 -56l219 -382q19 -28 48 -28h341q3 0 6 3v5l-233 402q-15 28 0 56zM1021 393q-2 6 -9 11.5t-14 5.5h-512q-12 0 -17 -15q-4 -17 6 -37l77 -130l3 -3h94q12 0 17 -9q8 -8 8 -16.5t-6 -25.5l-42 -72
l85 -145q4 -8 17 -8h23q29 0 48 28l222 384q6 9 6 26q-1 0 -2 0.5t-2 2t-2 3.5zM933 555l-137 239q-19 28 -48 28q-15 0 -28.5 -8t-19.5 -20l-140 -239v-6q0 -3 6 -3h364q3 0 6 3q0 3 -3 6zM1340 168v407h216q37 0 62 -17q20 -13 35 -43q13 -26 8 -57q-4 -33 -17 -46
l-28 -28q14 -9 31 -26q13 -12 17 -34q6 -28 6 -48q0 -26 -12 -54q-5 -14 -28 -31q-15 -11 -37 -20q-14 -6 -37 -6h-216v3zM1451 475v-51h59q17 0 26 8q9 10 6 20q0 9 -9 17q-6 6 -23 6h-59zM1451 327v-60h74q14 0 22.5 8.5t8.5 26.5q0 14 -9 22q-2 3 -5.5 3.5t-10.5 0
t-9 -0.5h-71zM1755 575h119v-410h-119v410zM2281 575v-111h-99v-299h-120v299h-99v111h318zM2608 179l-25 -8q-17 -6 -43 -6q-37 0 -71 9q-27 6 -63 36q-27 24 -45 69q-14 35 -14 99q0 34 11 69q10 31 26 54q19 28 42 48q23 19 60 28q38 10 60 6q47 -5 68 -17q33 -19 46 -31
q17 -17 28 -40q14 -29 14 -40l3 -25h-114l-8 17q-5 8 -17.5 16.5t-28.5 8.5q-8 0 -31 -6q-17 -11 -26 -19q-10 -16 -14 -32q-6 -22 -6 -37q0 -28 3 -42q6 -29 15 -40q13 -18 28 -26q19 -9 43 -5q33 4 37 14l14 17h-40v94h159v-225h-111v14zM3081 282v-114h-274v407h120v-296
h154v3zM3154 319q-6 48 -2 79q5 54 22 88q23 45 60 66q46 25 94 25q44 0 82 -17q37 -16 63 -51q20 -26 34 -74q9 -28 9 -82q-5 -63 -23 -103q-19 -42 -63 -68q-38 -23 -96 -23q-39 0 -77 17q-36 16 -63 52q-32 43 -40 91zM3268 341q0 -20 9 -37q11 -22 23 -28q22 -11 34 -9
q24 0 37 17q13 18 17 40q3 17 3 51q0 18 -6 52q-10 30 -23 39q-19 15 -37 15q-22 0 -37 -20q-16 -22 -20 -51q-4 -35 0 -69zM3578 168v407h216q37 0 63 -17q19 -13 34 -43q13 -26 9 -57q-4 -33 -17 -46l-29 -28q14 -9 32 -26q12 -12 17 -34q5 -28 5 -48q0 -26 -11 -54
q-6 -14 -29 -31q-14 -11 -37 -20q-14 -6 -37 -6h-216v3zM3689 475v-51h60q17 0 26 8q9 10 5 20q0 9 -8 17q-6 6 -23 6h-60zM3689 327v-60h74q14 0 22.5 8.5t8.5 26.5q0 14 -8 22q-6 6 -26 6h-71v-3zM4102 575h128l136 -410h-128l-17 60h-102l-17 -60h-128zM4167 421l-28 -97
h54zM4708 282v-114h-274v407h120v-296h154v3z" />
  </font>
</defs>
</svg>
